<?xml version="1.0" encoding="UTF-8" standalone="no"?>
<!-- Created with Inkscape (http://www.inkscape.org/) -->

<svg
   xmlns:dc="http://purl.org/dc/elements/1.1/"
   xmlns:cc="http://creativecommons.org/ns#"
   xmlns:rdf="http://www.w3.org/1999/02/22-rdf-syntax-ns#"
   xmlns:svg="http://www.w3.org/2000/svg"
   xmlns="http://www.w3.org/2000/svg"
   xmlns:sodipodi="http://sodipodi.sourceforge.net/DTD/sodipodi-0.dtd"
   xmlns:inkscape="http://www.inkscape.org/namespaces/inkscape"
   width="24.660667mm"
   height="19.305695mm"
   viewBox="0 0 24.660667 19.305694"
   version="1.1"
   id="svg7819"
   inkscape:version="0.92.4 (unknown)"
   sodipodi:docname="bullet.svg"
   inkscape:export-filename="/home/nathan/dev/ggj20/data/textures/bullet.png"
   inkscape:export-xdpi="96"
   inkscape:export-ydpi="96">
  <defs
     id="defs7813">
    <inkscape:path-effect
       effect="skeletal"
       id="path-effect8713"
       is_visible="true"
       pattern="M 0,5 C 0,2.24 2.24,0 5,0 7.76,0 10,2.24 10,5 10,7.76 7.76,10 5,10 2.24,10 0,7.76 0,5 Z"
       copytype="single_stretched"
       prop_scale="0.26458333"
       scale_y_rel="false"
       spacing="0"
       normal_offset="0"
       tang_offset="0"
       prop_units="false"
       vertical_pattern="false"
       fuse_tolerance="0" />
    <inkscape:path-effect
       effect="skeletal"
       id="path-effect8701"
       is_visible="true"
       pattern="M 0,5 C 0,2.24 2.24,0 5,0 7.76,0 10,2.24 10,5 10,7.76 7.76,10 5,10 2.24,10 0,7.76 0,5 Z"
       copytype="single_stretched"
       prop_scale="0.26458333"
       scale_y_rel="false"
       spacing="0"
       normal_offset="0"
       tang_offset="0"
       prop_units="false"
       vertical_pattern="false"
       fuse_tolerance="0" />
    <inkscape:path-effect
       effect="skeletal"
       id="path-effect8693"
       is_visible="true"
       pattern="M 0,5 C 0,2.24 2.24,0 5,0 7.76,0 10,2.24 10,5 10,7.76 7.76,10 5,10 2.24,10 0,7.76 0,5 Z"
       copytype="single_stretched"
       prop_scale="0.26458333"
       scale_y_rel="false"
       spacing="0"
       normal_offset="0"
       tang_offset="0"
       prop_units="false"
       vertical_pattern="false"
       fuse_tolerance="0" />
    <inkscape:path-effect
       effect="skeletal"
       id="path-effect8689"
       is_visible="true"
       pattern="M 0,5 C 0,2.24 2.24,0 5,0 7.76,0 10,2.24 10,5 10,7.76 7.76,10 5,10 2.24,10 0,7.76 0,5 Z"
       copytype="single_stretched"
       prop_scale="0.26458333"
       scale_y_rel="false"
       spacing="0"
       normal_offset="0"
       tang_offset="0"
       prop_units="false"
       vertical_pattern="false"
       fuse_tolerance="0" />
    <inkscape:path-effect
       effect="skeletal"
       id="path-effect8658"
       is_visible="true"
       pattern="M 0,5 C 0,2.24 2.24,0 5,0 7.76,0 10,2.24 10,5 10,7.76 7.76,10 5,10 2.24,10 0,7.76 0,5 Z"
       copytype="single_stretched"
       prop_scale="0.26458333"
       scale_y_rel="false"
       spacing="0"
       normal_offset="0"
       tang_offset="0"
       prop_units="false"
       vertical_pattern="false"
       fuse_tolerance="0" />
    <inkscape:path-effect
       effect="skeletal"
       id="path-effect8638"
       is_visible="true"
       pattern="M 0,5 C 0,2.24 2.24,0 5,0 7.76,0 10,2.24 10,5 10,7.76 7.76,10 5,10 2.24,10 0,7.76 0,5 Z"
       copytype="single_stretched"
       prop_scale="0.26458333"
       scale_y_rel="false"
       spacing="0"
       normal_offset="0"
       tang_offset="0"
       prop_units="false"
       vertical_pattern="false"
       fuse_tolerance="0" />
    <inkscape:path-effect
       effect="skeletal"
       id="path-effect8634"
       is_visible="true"
       pattern="M 0,5 C 0,2.24 2.24,0 5,0 7.76,0 10,2.24 10,5 10,7.76 7.76,10 5,10 2.24,10 0,7.76 0,5 Z"
       copytype="single_stretched"
       prop_scale="0.26458333"
       scale_y_rel="false"
       spacing="0"
       normal_offset="0"
       tang_offset="0"
       prop_units="false"
       vertical_pattern="false"
       fuse_tolerance="0" />
    <inkscape:path-effect
       effect="skeletal"
       id="path-effect8626"
       is_visible="true"
       pattern="M 0,5 C 0,2.24 2.24,0 5,0 7.76,0 10,2.24 10,5 10,7.76 7.76,10 5,10 2.24,10 0,7.76 0,5 Z"
       copytype="single_stretched"
       prop_scale="0.26458333"
       scale_y_rel="false"
       spacing="0"
       normal_offset="0"
       tang_offset="0"
       prop_units="false"
       vertical_pattern="false"
       fuse_tolerance="0" />
    <inkscape:path-effect
       effect="skeletal"
       id="path-effect8618"
       is_visible="true"
       pattern="M 0,5 C 0,2.24 2.24,0 5,0 7.76,0 10,2.24 10,5 10,7.76 7.76,10 5,10 2.24,10 0,7.76 0,5 Z"
       copytype="single_stretched"
       prop_scale="0.26458333"
       scale_y_rel="false"
       spacing="0"
       normal_offset="0"
       tang_offset="0"
       prop_units="false"
       vertical_pattern="false"
       fuse_tolerance="0" />
    <inkscape:path-effect
       effect="skeletal"
       id="path-effect8614"
       is_visible="true"
       pattern="M 0,5 C 0,2.24 2.24,0 5,0 7.76,0 10,2.24 10,5 10,7.76 7.76,10 5,10 2.24,10 0,7.76 0,5 Z"
       copytype="single_stretched"
       prop_scale="0.26458333"
       scale_y_rel="false"
       spacing="0"
       normal_offset="0"
       tang_offset="0"
       prop_units="false"
       vertical_pattern="false"
       fuse_tolerance="0" />
    <inkscape:path-effect
       effect="skeletal"
       id="path-effect8610"
       is_visible="true"
       pattern="M 0,5 C 0,2.24 2.24,0 5,0 7.76,0 10,2.24 10,5 10,7.76 7.76,10 5,10 2.24,10 0,7.76 0,5 Z"
       copytype="single_stretched"
       prop_scale="0.26458333"
       scale_y_rel="false"
       spacing="0"
       normal_offset="0"
       tang_offset="0"
       prop_units="false"
       vertical_pattern="false"
       fuse_tolerance="0" />
  </defs>
  <sodipodi:namedview
     id="base"
     pagecolor="#ffffff"
     bordercolor="#666666"
     borderopacity="1.0"
     inkscape:pageopacity="0.0"
     inkscape:pageshadow="2"
     inkscape:zoom="2.8"
     inkscape:cx="176.43036"
     inkscape:cy="-22.055148"
     inkscape:document-units="mm"
     inkscape:current-layer="layer1"
     showgrid="false"
     inkscape:window-width="1875"
     inkscape:window-height="1025"
     inkscape:window-x="45"
     inkscape:window-y="27"
     inkscape:window-maximized="1" />
  <metadata
     id="metadata7816">
    <rdf:RDF>
      <cc:Work
         rdf:about="">
        <dc:format>image/svg+xml</dc:format>
        <dc:type
           rdf:resource="http://purl.org/dc/dcmitype/StillImage" />
        <dc:title></dc:title>
      </cc:Work>
    </rdf:RDF>
  </metadata>
  <g
     inkscape:label="Layer 1"
     inkscape:groupmode="layer"
     id="layer1"
     transform="translate(-92.808529,-94.091261)">
    <g
       id="g8669"
       transform="matrix(0,-0.63968459,0.63968459,0,35.29729,175.44263)">
      <path
         sodipodi:nodetypes="cssssssssssssscc"
         inkscape:connector-curvature="0"
         id="path8576"
         d="m 120.47173,117.896 c 0,5.66449 -4.65181,10.25647 -10.3901,10.25647 -5.7383,0 -10.390109,-4.59198 -10.390105,-10.25647 2e-6,-2.73841 -1.418478,-7.2975 0.353045,-9.13696 0.93667,-0.9726 1.67594,-7.83829 3.55559,-7.87719 1.91892,-0.0397 4.98405,6.75769 6.48147,6.75769 0.15379,0 -3.30507,-1.09784 -3.00232,-4.34271 0.41736,-4.473199 4.61416,-11.492452 4.82051,-11.471352 3.78969,0.387521 5.82013,8.447652 7.07392,16.346152 0.16108,1.01477 1.18637,-8.769803 1.4116,-7.4719 0.11636,0.67048 0.71186,-1.690371 0.73851,0.0953 0.004,0.29158 0.90981,-2.113943 0.91243,-1.806265 0.007,0.829051 1.17746,2.077125 1.17439,2.971795 -0.004,1.29816 1.63063,4.03388 1.29909,6.07377 -0.80286,4.9398 -4.03804,9.86171 -4.03804,9.86171 z"
         style="fill:#00fffa;fill-opacity:1;stroke:#00fffa;stroke-width:0.40000001;stroke-miterlimit:4;stroke-dasharray:none;stroke-opacity:1" />
      <path
         inkscape:original-d="m 100.56016,119.13213 c -7.058337,-7.90803 3.60814,-16.13745 3.60814,-24.856068"
         inkscape:path-effect="#path-effect8610"
         inkscape:connector-curvature="0"
         id="path8608"
         d="m 100.56016,119.13213 c 0.0333,-0.0298 -3.27575,-0.94951 -3.55808,-5.9981 -0.08379,-2.19371 0.503361,-4.38366 1.5009,-6.6499 0.04106,-0.0956 0.08261,-0.19117 0.124616,-0.28666 0.997504,-2.26719 2.094254,-4.21725 2.926054,-5.91545 1.68201,-3.48928 2.12397,-6.00596 2.61465,-6.00596 0.56831,-10e-7 0.96759,2.856234 -0.49805,6.89376 -0.76391,2.1435 -1.5764,3.71637 -2.62083,6.09266 -0.0396,0.0901 -0.0789,0.17995 -0.11769,0.26952 -0.91772,2.17343 -1.541714,3.86273 -1.641418,5.61042 -0.283664,3.36014 1.634058,5.66463 1.269848,5.98971 z"
         style="fill:#000000;stroke:none;stroke-width:0.26458332px;stroke-linecap:butt;stroke-linejoin:miter;stroke-opacity:1" />
      <path
         inkscape:original-d="m 109.1796,112.31676 c 0.0302,-1.06552 0.11529,-2.39659 -0.33409,-3.40769 -0.94133,-2.11802 -3.36737,-4.34202 -3.80859,-6.54811 -0.61335,-3.066781 0.59915,-5.785743 -1.13589,-8.151716"
         inkscape:path-effect="#path-effect8614"
         inkscape:connector-curvature="0"
         id="path8612"
         d="m 109.1796,112.31676 c -0.40523,-0.0115 -0.34324,-1.77652 -1.25806,-2.99704 -0.49156,-0.82349 -1.30899,-1.70394 -2.21298,-2.90888 -0.47846,-0.59474 -1.01296,-1.32876 -1.42357,-2.21311 -0.22944,-0.49414 -0.41311,-1.01968 -0.53282,-1.57982 -0.29877,-1.76357 -0.0609,-3.504777 0.0664,-4.603159 0.20203,-2.221128 -0.27261,-3.545156 0.0824,-3.805507 0.32812,-0.240622 1.87314,0.882671 2.05958,3.820603 0.12212,1.307742 0.0446,2.776403 0.36106,4.074163 0.0541,0.30899 0.17231,0.62234 0.33909,0.95443 0.28725,0.57195 0.74699,1.24022 1.13802,1.86681 0.83086,1.24133 1.52816,2.26925 1.9707,3.57317 0.79094,2.60752 -0.56144,3.81915 -0.58988,3.81834 z"
         style="fill:#000000;stroke:none;stroke-width:0.26458332px;stroke-linecap:butt;stroke-linejoin:miter;stroke-opacity:1" />
      <path
         inkscape:original-d="m 108.04371,105.90229 c -3.59641,-6.425422 2.9808,-8.994481 3.34086,-15.835722"
         inkscape:path-effect="#path-effect8618"
         inkscape:connector-curvature="0"
         id="path8616"
         d="m 108.04371,105.90229 c -0.15545,0.087 -2.22778,-0.90797 -2.2025,-4.33069 0.0509,-1.39733 0.5091,-2.757654 1.22531,-4.05847 0.0464,-0.08718 0.0934,-0.173988 0.14092,-0.260492 0.69018,-1.255569 1.39587,-2.30039 1.92926,-3.229999 1.26602,-2.205407 1.73381,-3.983134 2.24787,-3.956079 0.47233,0.02486 1.00779,2.053638 -0.11144,4.957747 -0.47304,1.230065 -1.07015,2.276052 -1.7476,3.504533 -0.0443,0.08024 -0.0879,0.159719 -0.13113,0.238752 -0.62572,1.189804 -1.07151,2.079568 -1.23991,3.019368 -0.46444,2.03769 0.32632,3.87068 -0.11078,4.11533 z"
         style="fill:#000000;stroke:none;stroke-width:0.26458332px;stroke-linecap:butt;stroke-linejoin:miter;stroke-opacity:1" />
      <path
         inkscape:original-d="m 114.79226,112.24994 c 9.66982,-4.78815 0.72881,-16.676332 -3.40769,-22.317008"
         inkscape:path-effect="#path-effect8626"
         inkscape:connector-curvature="0"
         id="path8624"
         d="m 114.79226,112.24994 c -0.21609,-0.4364 2.60521,-1.90213 3.01875,-4.98418 0.30372,-1.57772 -0.0673,-3.30779 -0.7891,-5.40556 -0.0368,-0.10282 -0.0745,-0.20571 -0.1129,-0.30871 -1.12155,-3.005719 -2.97467,-6.063446 -4.03967,-7.964871 -1.15933,-2.069838 -1.79196,-3.42842 -1.48477,-3.65369 0.27887,-0.204509 1.44734,0.748036 3.02202,2.574379 1.51971,1.76259 3.63789,4.616001 4.97431,8.109572 0.044,0.11492 0.0869,0.22999 0.12876,0.34519 0.88133,2.3434 1.12154,4.70823 0.52125,6.84443 -1.65325,5.17727 -5.41452,4.08827 -5.23865,4.44344 z"
         style="fill:#000000;stroke:none;stroke-width:0.26458332px;stroke-linecap:butt;stroke-linejoin:miter;stroke-opacity:1" />
      <path
         inkscape:original-d="m 119.60311,120.06757 c 9.05338,-17.63681 6.98795,-8.73464 1.87089,-25.791508"
         inkscape:path-effect="#path-effect8634"
         inkscape:connector-curvature="0"
         id="path8632"
         d="m 119.60311,120.06757 c -0.62465,-0.32065 1.10548,-4.36134 3.70125,-9.66256 0.35628,-0.7342 0.73173,-1.48421 0.97853,-2.19931 0.0993,-0.3023 0.18352,-0.59261 0.2237,-0.85883 0.02,-0.13257 0.029,-0.25841 0.0242,-0.37731 0.0572,-0.94644 -0.61814,-2.20396 -1.06598,-3.46594 -1.96558,-5.161505 -2.52018,-9.068744 -1.99077,-9.227567 0.56522,-0.169567 2.05741,3.418736 4.28836,8.263677 0.52237,1.05231 1.32001,2.54217 1.41183,4.39938 -4.1e-4,0.26555 -0.019,0.52432 -0.0529,0.77548 -0.0684,0.50564 -0.19785,0.97043 -0.3585,1.38739 -0.34871,0.93234 -0.79343,1.76281 -1.1983,2.48449 -2.89157,5.19846 -5.50432,8.71571 -5.96136,8.4811 z"
         style="fill:#000000;stroke:none;stroke-width:0.26458332px;stroke-linecap:butt;stroke-linejoin:miter;stroke-opacity:1" />
      <path
         inkscape:original-d="m 119.46948,101.89324 c 2.10028,-1.86293 2.30055,-4.504659 1.87089,-7.08264"
         inkscape:path-effect="#path-effect8638"
         inkscape:connector-curvature="0"
         id="path8636"
         d="m 119.46948,101.89324 c -0.36995,-0.41708 0.22396,-2.028059 0.52501,-3.52238 0.34215,-1.698304 0.62232,-3.439668 1.34588,-3.560261 0.61065,-0.101775 1.85595,1.557423 1.22565,4.141719 -0.65003,2.665172 -2.63364,3.462802 -3.09654,2.940922 z"
         style="fill:#000000;stroke:none;stroke-width:0.26458332px;stroke-linecap:butt;stroke-linejoin:miter;stroke-opacity:1" />
      <path
         inkscape:original-d="m 99.22381,117.59533 c 0.611807,10.98479 21.11429,13.89133 21.11429,1.13589"
         inkscape:path-effect="#path-effect8658"
         inkscape:connector-curvature="0"
         id="path8656"
         d="m 99.22381,117.59533 c 0.267616,-0.0149 0.45696,0.75181 1.0281,1.87503 0.57204,1.12497 1.556,2.61228 3.24864,3.83733 1.67867,1.21523 3.88956,2.13154 6.46219,2.42274 0.0586,0.007 0.11708,0.0129 0.17553,0.0188 2.51387,0.21439 4.7103,-0.17945 6.32836,-1.21192 0.96497,-0.59388 1.68721,-1.37785 2.17879,-2.14879 0,0 0,0 0,0 1.24618,-1.9198 1.34183,-3.65731 1.69268,-3.65731 0.13592,0 1.05493,1.6405 -0.0716,4.47058 0,10e-6 0,10e-6 0,10e-6 -0.44692,1.09982 -1.24571,2.27543 -2.48303,3.22022 -2.06149,1.53843 -4.87591,2.28403 -7.90094,1.96045 -0.0701,-0.007 -0.14037,-0.0137 -0.21065,-0.0213 -3.09259,-0.33523 -5.72125,-1.60778 -7.61034,-3.26737 -4.452195,-3.89912 -2.813363,-7.49984 -2.83769,-7.49849 z"
         style="fill:#000000;stroke:none;stroke-width:0.26458332px;stroke-linecap:butt;stroke-linejoin:miter;stroke-opacity:1" />
    </g>
    <path
       style="fill:#f9f9f9;stroke:none;stroke-width:0.26458332px;stroke-linecap:butt;stroke-linejoin:miter;stroke-opacity:1"
       d="m 112.78774,105.93569 c -0.16399,0.52821 -1.99758,0.88873 -3.98498,1.07467 -0.0959,0.009 -0.19139,0.0171 -0.28648,0.0244 0,0 0,0 0,0 -0.94969,0.11846 -2.02089,0.093 -2.54178,0.0702 -0.6121,-0.0268 -1.12398,-0.0778 -1.30507,-0.3675 -0.18369,-0.29389 0.0172,-0.81657 0.69973,-1.32441 0.70225,-0.52253 1.70469,-0.87366 2.83898,-0.99914 0,0 0,0 0,0 0.1039,-0.0161 0.20971,-0.0305 0.31728,-0.0429 1.24612,-0.14374 2.37767,0.0197 3.2025,0.38356 0.81078,0.35765 1.16706,0.83564 1.05982,1.18107 z"
       id="path8687"
       inkscape:connector-curvature="0"
       inkscape:path-effect="#path-effect8689"
       inkscape:original-d="m 112.78774,105.93569 c -2.39795,-0.74449 -6.69735,-0.0863 -8.11831,0.80181"
       transform="matrix(0.63968459,0,0,0.63968459,33.440343,33.902531)" />
    <path
       style="fill:#f9f9f9;stroke:none;stroke-width:0.26458332px;stroke-linecap:butt;stroke-linejoin:miter;stroke-opacity:1"
       d="m 126.01758,107.03818 c -0.63162,0.22994 -1.57243,-0.37534 -2.16675,-0.97152 -0.60921,-0.61112 -1.20169,-1.56739 -0.94026,-2.2023 0.2579,-0.62634 1.62466,-0.8927 2.83057,0.33467 1.21514,1.23676 0.91779,2.60567 0.27644,2.83915 z"
       id="path8691"
       inkscape:connector-curvature="0"
       inkscape:path-effect="#path-effect8693"
       inkscape:original-d="m 126.01758,107.03818 c -0.4878,-1.33994 -1.76774,-2.62236 -3.10701,-3.17382"
       transform="matrix(0.63968459,0,0,0.63968459,33.440343,33.902531)" />
    <path
       style="fill:#f9f9f9;stroke:none;stroke-width:0.26458332px;stroke-linecap:butt;stroke-linejoin:miter;stroke-opacity:1"
       d="m 116.16202,113.6531 c 0.32223,0.68863 -0.56889,1.68785 -1.74517,2.34599 -1.06377,0.59518 -2.27484,0.91784 -2.76502,0.46035 -0.54834,-0.51179 -0.0456,-1.88167 1.44644,-2.75677 1.40629,-0.82481 2.77269,-0.67159 3.06375,-0.0496 z"
       id="path8699"
       inkscape:connector-curvature="0"
       inkscape:path-effect="#path-effect8701"
       inkscape:original-d="m 116.16202,113.6531 c -1.65075,0.77244 -3.26548,1.47273 -4.51018,2.80633"
       transform="matrix(0.63968459,0,0,0.63968459,33.440343,33.902531)" />
    <path
       style="fill:#f9f9f9;stroke:none;stroke-width:0.26458332px;stroke-linecap:butt;stroke-linejoin:miter;stroke-opacity:1"
       d="m 113.05501,99.721679 c -0.25927,0.667411 -1.69829,0.742461 -3.11931,0.597071 -1.39738,-0.14297 -2.78392,-0.482247 -2.92767,-1.165019 -0.14689,-0.69775 1.17409,-1.668319 3.19071,-1.471075 2.00138,0.195753 3.11036,1.384957 2.85627,2.039023 z"
       id="path8711"
       inkscape:connector-curvature="0"
       inkscape:path-effect="#path-effect8713"
       inkscape:original-d="m 113.05501,99.721679 c -1.87861,-0.729784 -4.13175,-0.971153 -6.04697,-0.567949"
       transform="matrix(0.63968459,0,0,0.63968459,33.440343,33.902531)" />
  </g>
</svg>
