<?xml version="1.0" encoding="UTF-8" standalone="no"?>
<!-- Created with Inkscape (http://www.inkscape.org/) -->

<svg
   xmlns:dc="http://purl.org/dc/elements/1.1/"
   xmlns:cc="http://creativecommons.org/ns#"
   xmlns:rdf="http://www.w3.org/1999/02/22-rdf-syntax-ns#"
   xmlns:svg="http://www.w3.org/2000/svg"
   xmlns="http://www.w3.org/2000/svg"
   xmlns:sodipodi="http://sodipodi.sourceforge.net/DTD/sodipodi-0.dtd"
   xmlns:inkscape="http://www.inkscape.org/namespaces/inkscape"
   width="48.161304mm"
   height="28.284464mm"
   viewBox="0 0 48.161305 28.284464"
   version="1.1"
   id="svg888"
   inkscape:version="0.92.4 (unknown)"
   sodipodi:docname="cracker.svg">
  <defs
     id="defs882">
    <inkscape:path-effect
       effect="skeletal"
       id="path-effect1607"
       is_visible="true"
       pattern="M 0,5 C 0,2.24 2.24,0 5,0 7.76,0 10,2.24 10,5 10,7.76 7.76,10 5,10 2.24,10 0,7.76 0,5 Z"
       copytype="single_stretched"
       prop_scale="0.26458333"
       scale_y_rel="false"
       spacing="0"
       normal_offset="0"
       tang_offset="0"
       prop_units="false"
       vertical_pattern="false"
       fuse_tolerance="0" />
    <inkscape:path-effect
       effect="skeletal"
       id="path-effect1603"
       is_visible="true"
       pattern="M 0,5 C 0,2.24 2.24,0 5,0 7.76,0 10,2.24 10,5 10,7.76 7.76,10 5,10 2.24,10 0,7.76 0,5 Z"
       copytype="single_stretched"
       prop_scale="0.26458333"
       scale_y_rel="false"
       spacing="0"
       normal_offset="0"
       tang_offset="0"
       prop_units="false"
       vertical_pattern="false"
       fuse_tolerance="0" />
    <inkscape:path-effect
       effect="skeletal"
       id="path-effect1599"
       is_visible="true"
       pattern="M 0,5 C 0,2.24 2.24,0 5,0 7.76,0 10,2.24 10,5 10,7.76 7.76,10 5,10 2.24,10 0,7.76 0,5 Z"
       copytype="single_stretched"
       prop_scale="0.26458333"
       scale_y_rel="false"
       spacing="0"
       normal_offset="0"
       tang_offset="0"
       prop_units="false"
       vertical_pattern="false"
       fuse_tolerance="0" />
    <inkscape:path-effect
       effect="skeletal"
       id="path-effect1595"
       is_visible="true"
       pattern="M 0,5 C 0,2.24 2.24,0 5,0 7.76,0 10,2.24 10,5 10,7.76 7.76,10 5,10 2.24,10 0,7.76 0,5 Z"
       copytype="single_stretched"
       prop_scale="0.26458333"
       scale_y_rel="false"
       spacing="0"
       normal_offset="0"
       tang_offset="0"
       prop_units="false"
       vertical_pattern="false"
       fuse_tolerance="0" />
    <inkscape:path-effect
       effect="skeletal"
       id="path-effect1591"
       is_visible="true"
       pattern="M 0,5 C 0,2.24 2.24,0 5,0 7.76,0 10,2.24 10,5 10,7.76 7.76,10 5,10 2.24,10 0,7.76 0,5 Z"
       copytype="single_stretched"
       prop_scale="0.26458333"
       scale_y_rel="false"
       spacing="0"
       normal_offset="0"
       tang_offset="0"
       prop_units="false"
       vertical_pattern="false"
       fuse_tolerance="0" />
    <inkscape:path-effect
       effect="skeletal"
       id="path-effect1587"
       is_visible="true"
       pattern="M 0,5 C 0,2.24 2.24,0 5,0 7.76,0 10,2.24 10,5 10,7.76 7.76,10 5,10 2.24,10 0,7.76 0,5 Z"
       copytype="single_stretched"
       prop_scale="0.26458333"
       scale_y_rel="false"
       spacing="0"
       normal_offset="0"
       tang_offset="0"
       prop_units="false"
       vertical_pattern="false"
       fuse_tolerance="0" />
    <inkscape:path-effect
       effect="skeletal"
       id="path-effect1583"
       is_visible="true"
       pattern="M 0,5 C 0,2.24 2.24,0 5,0 7.76,0 10,2.24 10,5 10,7.76 7.76,10 5,10 2.24,10 0,7.76 0,5 Z"
       copytype="single_stretched"
       prop_scale="0.26458333"
       scale_y_rel="false"
       spacing="0"
       normal_offset="0"
       tang_offset="0"
       prop_units="false"
       vertical_pattern="false"
       fuse_tolerance="0" />
    <inkscape:path-effect
       effect="skeletal"
       id="path-effect1579"
       is_visible="true"
       pattern="M 0,5 C 0,2.24 2.24,0 5,0 7.76,0 10,2.24 10,5 10,7.76 7.76,10 5,10 2.24,10 0,7.76 0,5 Z"
       copytype="single_stretched"
       prop_scale="0.26458333"
       scale_y_rel="false"
       spacing="0"
       normal_offset="0"
       tang_offset="0"
       prop_units="false"
       vertical_pattern="false"
       fuse_tolerance="0" />
    <inkscape:path-effect
       effect="skeletal"
       id="path-effect1555"
       is_visible="true"
       pattern="M 0,5 C 0,2.24 2.24,0 5,0 7.76,0 10,2.24 10,5 10,7.76 7.76,10 5,10 2.24,10 0,7.76 0,5 Z"
       copytype="single_stretched"
       prop_scale="0.26458333"
       scale_y_rel="false"
       spacing="0"
       normal_offset="0"
       tang_offset="0"
       prop_units="false"
       vertical_pattern="false"
       fuse_tolerance="0" />
    <inkscape:path-effect
       effect="skeletal"
       id="path-effect861"
       is_visible="true"
       pattern="M 0,5 C 0,2.24 2.24,0 5,0 7.76,0 10,2.24 10,5 10,7.76 7.76,10 5,10 2.24,10 0,7.76 0,5 Z"
       copytype="single_stretched"
       prop_scale="0.26458333"
       scale_y_rel="false"
       spacing="0"
       normal_offset="0"
       tang_offset="0"
       prop_units="false"
       vertical_pattern="false"
       fuse_tolerance="0" />
    <inkscape:path-effect
       effect="skeletal"
       id="path-effect853"
       is_visible="true"
       pattern="M 0,5 C 0,2.24 2.24,0 5,0 7.76,0 10,2.24 10,5 10,7.76 7.76,10 5,10 2.24,10 0,7.76 0,5 Z"
       copytype="single_stretched"
       prop_scale="0.26458333"
       scale_y_rel="false"
       spacing="0"
       normal_offset="0"
       tang_offset="0"
       prop_units="false"
       vertical_pattern="false"
       fuse_tolerance="0" />
    <inkscape:path-effect
       effect="skeletal"
       id="path-effect849"
       is_visible="true"
       pattern="M 0,5 C 0,2.24 2.24,0 5,0 7.76,0 10,2.24 10,5 10,7.76 7.76,10 5,10 2.24,10 0,7.76 0,5 Z"
       copytype="single_stretched"
       prop_scale="0.26458333"
       scale_y_rel="false"
       spacing="0"
       normal_offset="0"
       tang_offset="0"
       prop_units="false"
       vertical_pattern="false"
       fuse_tolerance="0" />
    <inkscape:path-effect
       effect="skeletal"
       id="path-effect845"
       is_visible="true"
       pattern="M 0,5 C 0,2.24 2.24,0 5,0 7.76,0 10,2.24 10,5 10,7.76 7.76,10 5,10 2.24,10 0,7.76 0,5 Z"
       copytype="single_stretched"
       prop_scale="0.26458333"
       scale_y_rel="false"
       spacing="0"
       normal_offset="0"
       tang_offset="0"
       prop_units="false"
       vertical_pattern="false"
       fuse_tolerance="0" />
    <inkscape:path-effect
       effect="skeletal"
       id="path-effect841"
       is_visible="true"
       pattern="M 0,5 C 0,2.24 2.24,0 5,0 7.76,0 10,2.24 10,5 10,7.76 7.76,10 5,10 2.24,10 0,7.76 0,5 Z"
       copytype="single_stretched"
       prop_scale="0.26458333"
       scale_y_rel="false"
       spacing="0"
       normal_offset="0"
       tang_offset="0"
       prop_units="false"
       vertical_pattern="false"
       fuse_tolerance="0" />
  </defs>
  <sodipodi:namedview
     id="base"
     pagecolor="#ffffff"
     bordercolor="#666666"
     borderopacity="1.0"
     inkscape:pageopacity="0.0"
     inkscape:pageshadow="2"
     inkscape:zoom="1.979899"
     inkscape:cx="-36.500121"
     inkscape:cy="24.966862"
     inkscape:document-units="mm"
     inkscape:current-layer="layer1"
     showgrid="false"
     showguides="true"
     inkscape:guide-bbox="true"
     inkscape:window-width="1875"
     inkscape:window-height="1025"
     inkscape:window-x="45"
     inkscape:window-y="27"
     inkscape:window-maximized="1">
    <sodipodi:guide
       position="1.9832426,58.335656"
       orientation="0,1"
       id="guide1615"
       inkscape:locked="false" />
  </sodipodi:namedview>
  <metadata
     id="metadata885">
    <rdf:RDF>
      <cc:Work
         rdf:about="">
        <dc:format>image/svg+xml</dc:format>
        <dc:type
           rdf:resource="http://purl.org/dc/dcmitype/StillImage" />
        <dc:title />
      </cc:Work>
    </rdf:RDF>
  </metadata>
  <g
     inkscape:label="Layer 1"
     inkscape:groupmode="layer"
     id="layer1"
     transform="translate(-73.119494,-112.43376)">
    <path
       style="fill:#ffe6d5;fill-opacity:1;stroke:#000000;stroke-width:0.56160152;stroke-miterlimit:4;stroke-dasharray:none;stroke-opacity:1"
       d="m 107.09712,119.42974 c 1.13005,2.2568 1.35366,5.75779 -0.65359,7.91873 -1.954,2.10363 -6.08279,2.89791 -9.148077,2.89791 -3.776756,0 -10.366794,-0.73754 -12.407532,-3.02579 -1.317001,-1.47673 -1.095959,-4.1807 -0.236049,-5.93492 2.725911,-5.56086 4.979528,-7.74273 11.193629,-7.74273 6.214099,0 8.873699,1.1379 11.251619,5.8868 z"
       id="path1523"
       inkscape:connector-curvature="0"
       sodipodi:nodetypes="sssssss"
       inkscape:export-xdpi="96"
       inkscape:export-ydpi="96"
       inkscape:export-filename="/home/nathan/dev/ggj20/data/textures/cracker.png" />
    <path
       style="fill:#6c5d53;fill-opacity:1;stroke:#000000;stroke-width:0.56160152;stroke-miterlimit:4;stroke-dasharray:none;stroke-opacity:1"
       d="m 78.330086,129.4344 h 38.104724 l 4.40786,9.62768 -47.268425,-0.17399 z"
       id="rect1544"
       inkscape:connector-curvature="0"
       sodipodi:nodetypes="ccccc"
       inkscape:export-xdpi="96"
       inkscape:export-ydpi="96"
       inkscape:export-filename="/home/nathan/dev/ggj20/data/textures/cracker.png" />
    <path
       style="fill:#e3dedb;fill-opacity:1;stroke:#000000;stroke-width:0.56160152;stroke-miterlimit:4;stroke-dasharray:none;stroke-opacity:1"
       d="m 87.087793,133.43628 c 0,1.60157 -1.346558,3.70407 -2.783907,3.59588 -2.311386,-0.174 -4.425911,-2.07668 -3.653877,-3.47989 2.029931,-3.6895 3.77841,-2.9579 5.219825,-2.9579 1.441416,0 1.217959,1.24033 1.217959,2.84191 z"
       id="path1550"
       inkscape:connector-curvature="0"
       sodipodi:nodetypes="sssss"
       inkscape:export-xdpi="96"
       inkscape:export-ydpi="96"
       inkscape:export-filename="/home/nathan/dev/ggj20/data/textures/cracker.png" />
    <path
       style="fill:#ffe6d5;fill-opacity:1;stroke:#000000;stroke-width:0.56160152;stroke-miterlimit:4;stroke-dasharray:none;stroke-opacity:1"
       d="m 89.697707,129.40542 c 0.843839,2.1246 0.222739,2.6891 -1.177627,4.20027 -0.63741,0.68785 -0.812621,1.61447 -3.694212,0.23657 -1.936144,-0.92581 -3.711876,-3.17502 -3.711876,-5.01683 -10e-7,-1.29616 0.339633,-2.82559 1.598134,-3.37749 0.529804,-0.23234 2.115914,-0.76938 2.75172,-0.76938 2.146107,0 3.554001,3.01511 4.233861,4.72686 z"
       id="path1526"
       inkscape:connector-curvature="0"
       sodipodi:nodetypes="sssssss"
       inkscape:export-xdpi="96"
       inkscape:export-ydpi="96"
       inkscape:export-filename="/home/nathan/dev/ggj20/data/textures/cracker.png" />
    <path
       style="fill:#483e37;fill-opacity:1;stroke:#000000;stroke-width:0.56160152;stroke-miterlimit:4;stroke-dasharray:none;stroke-opacity:1"
       d="m 91.553639,131.23235 21.981271,0.34799 3.42188,4.87184 H 87.609772 Z"
       id="rect1547"
       inkscape:connector-curvature="0"
       sodipodi:nodetypes="ccccc"
       inkscape:export-xdpi="96"
       inkscape:export-ydpi="96"
       inkscape:export-filename="/home/nathan/dev/ggj20/data/textures/cracker.png" />
    <path
       style="fill:#ffe6d5;fill-opacity:1;stroke:#000000;stroke-width:0.56160152;stroke-miterlimit:4;stroke-dasharray:none;stroke-opacity:1"
       d="m 102.87955,130.15032 c -0.84383,2.12461 -0.22273,2.68911 1.17764,4.20028 0.6374,0.68784 0.81262,1.61447 3.6942,0.23658 1.93615,-0.92581 3.71188,-3.17503 3.71188,-5.01684 0,-1.29616 -0.33963,-2.82559 -1.59813,-3.37749 -0.52981,-0.23233 -2.11592,-0.76937 -2.75172,-0.76937 -2.14611,0 -3.55401,3.0151 -4.23387,4.72684 z"
       id="path1526-6"
       inkscape:connector-curvature="0"
       sodipodi:nodetypes="sssssss"
       inkscape:export-xdpi="96"
       inkscape:export-ydpi="96"
       inkscape:export-filename="/home/nathan/dev/ggj20/data/textures/cracker.png" />
    <path
       style="fill:#000000;stroke:none;stroke-width:0.26458332px;stroke-linecap:butt;stroke-linejoin:miter;stroke-opacity:1"
       d="m 86.461692,172.4524 c 0.142366,0.4926 -1.457267,1.21925 -1.837364,2.45066 -0.205197,0.41377 -0.186428,1.0076 -0.07223,1.72163 0.0086,0.0483 0.01789,0.0967 0.02773,0.14514 0.267218,1.31643 1.023592,2.72311 1.463277,3.68651 0.472144,1.03451 0.703442,1.77452 0.418595,2.01868 -0.262296,0.22482 -1.013188,-0.0591 -1.931869,-0.88546 -0.895517,-0.80547 -2.039115,-2.24024 -2.523452,-4.23752 -0.01681,-0.0693 -0.0327,-0.13882 -0.04766,-0.2085 -0.277246,-1.2431 -0.0056,-2.51786 0.678292,-3.50304 1.95887,-2.39797 3.803727,-1.26059 3.824678,-1.1881 z"
       id="path1553"
       inkscape:connector-curvature="0"
       inkscape:path-effect="#path-effect1555"
       inkscape:original-d="m 86.461692,172.4524 c -5.790809,1.67358 -2.759277,6.80345 0,10.02261"
       transform="matrix(0.43400432,0,0,0.43400432,44.807204,61.491092)"
       inkscape:export-xdpi="96"
       inkscape:export-ydpi="96"
       inkscape:export-filename="/home/nathan/dev/ggj20/data/textures/cracker.png" />
    <path
       style="fill:#000000;stroke:none;stroke-width:0.26458332px;stroke-linecap:butt;stroke-linejoin:miter;stroke-opacity:1"
       d="m 96.617934,127.81839 c 0.04855,0.5209 -1.996264,0.90397 -3.539518,2.39902 -0.613044,0.55333 -1.124711,1.34853 -1.460173,2.31641 -0.0068,0.0196 -0.0135,0.0392 -0.0201,0.0588 -0.592663,1.67292 -0.597358,3.73384 -0.668859,5.07754 -0.07682,1.44372 -0.220082,2.38058 -0.592184,2.4426 -0.334842,0.0558 -0.867036,-0.75536 -1.276716,-2.22762 -0.395821,-1.42246 -0.715637,-3.69643 0.02233,-6.11251 0.0095,-0.0297 0.01913,-0.0593 0.02902,-0.0889 0.489817,-1.46571 1.427035,-2.62736 2.535389,-3.36867 2.914647,-1.84071 4.951684,-0.70194 4.97081,-0.49673 z"
       id="path1577"
       inkscape:connector-curvature="0"
       inkscape:path-effect="#path-effect1579"
       inkscape:original-d="m 96.617934,127.81839 c -7.457331,0.69501 -7.189078,6.84493 -6.280835,12.2944"
       transform="matrix(0.43400432,0,0,0.43400432,44.807204,61.491092)"
       inkscape:export-xdpi="96"
       inkscape:export-ydpi="96"
       inkscape:export-filename="/home/nathan/dev/ggj20/data/textures/cracker.png" />
    <path
       style="fill:#000000;stroke:none;stroke-width:0.26458332px;stroke-linecap:butt;stroke-linejoin:miter;stroke-opacity:1"
       d="m 140.71741,127.41748 c 0.10995,-0.30955 1.28025,-0.37828 2.97277,0.46557 1.68479,0.84001 3.71176,2.56315 4.89605,5.29902 0.0874,0.20183 0.16811,0.40487 0.24227,0.60873 0.65767,1.77117 0.73519,3.53904 0.37893,5.04733 -0.80258,3.30963 -3.01175,3.69816 -3.14463,3.54645 -0.30816,-0.3518 0.83537,-1.74901 0.94501,-3.90351 0.0717,-1.12947 -0.13685,-2.38483 -0.65407,-3.76871 -0.0611,-0.15942 -0.12621,-0.31888 -0.19536,-0.47823 -0.93122,-2.14615 -2.33395,-3.7131 -3.51206,-4.80052 -1.15756,-1.06844 -2.05732,-1.65461 -1.92891,-2.01613 z"
       id="path1581"
       inkscape:connector-curvature="0"
       inkscape:path-effect="#path-effect1583"
       inkscape:original-d="m 140.71741,127.41748 c 6.56393,2.33151 9.98417,10.90372 5.34539,14.9671"
       sodipodi:nodetypes="cc"
       transform="matrix(0.43400432,0,0,0.43400432,44.807204,61.491092)"
       inkscape:export-xdpi="96"
       inkscape:export-ydpi="96"
       inkscape:export-filename="/home/nathan/dev/ggj20/data/textures/cracker.png" />
    <path
       style="fill:#000000;stroke:none;stroke-width:0.26458332px;stroke-linecap:butt;stroke-linejoin:miter;stroke-opacity:1"
       d="m 96.617932,127.81839 c -0.194577,-0.0752 -0.07383,-2.03415 2.412087,-4.25983 1.293981,-1.1711 2.971191,-2.24055 5.145981,-3.1816 3.90496,-1.69736 8.61819,-2.76838 14.13846,-2.96213 0.12498,-0.005 0.25026,-0.009 0.37583,-0.0132 5.36165,-0.1673 10.02041,0.56461 13.97947,2.08984 0,0 0,10e-6 0,10e-6 2.26539,0.86929 4.03868,1.95543 5.39286,3.17214 2.76941,2.4813 2.80221,4.69649 2.65479,4.75382 -0.28485,0.11078 -1.12506,-1.74062 -3.6628,-3.48244 -1.34354,-0.92078 -2.97112,-1.69065 -5.11245,-2.35915 0,0 0,0 0,0 -3.76735,-1.171 -8.03675,-1.66852 -13.17427,-1.528 -0.11977,0.003 -0.23932,0.007 -0.35866,0.0108 -5.29409,0.1939 -9.65953,0.99941 -13.44394,2.32515 -2.10275,0.74055 -3.65995,1.5005 -4.977051,2.38858 -2.314411,1.57901 -3.101113,3.15002 -3.370307,3.04598 z"
       id="path1585"
       inkscape:connector-curvature="0"
       inkscape:path-effect="#path-effect1587"
       inkscape:original-d="m 96.617932,127.81839 c 4.184368,-10.82635 39.099578,-13.25771 44.099478,-0.40091"
       transform="matrix(0.43400432,0,0,0.43400432,44.807204,61.491092)"
       inkscape:export-xdpi="96"
       inkscape:export-ydpi="96"
       inkscape:export-filename="/home/nathan/dev/ggj20/data/textures/cracker.png" />
    <path
       style="fill:#000000;stroke:none;stroke-width:0.26458332px;stroke-linecap:butt;stroke-linejoin:miter;stroke-opacity:1"
       d="m 112.2532,130.49108 c 0.6526,0.19948 0.63198,3.08826 -1.9311,5.76493 -0.0159,0.0166 -0.0319,0.0332 -0.0479,0.0496 -2.35191,2.40752 -4.88176,3.17566 -5.23731,2.73807 -0.55955,-0.68869 1.33959,-2.4785 3.33341,-4.57512 -5e-5,5e-5 0.039,-0.0408 0.039,-0.0408 1.8902,-1.98226 3.22001,-4.12745 3.84392,-3.93674 z"
       id="path1589"
       inkscape:connector-curvature="0"
       inkscape:path-effect="#path-effect1591"
       inkscape:original-d="m 112.2532,130.49108 c -1.26879,4.1508 -4.1416,6.05445 -7.21628,8.55263"
       transform="matrix(0.43400432,0,0,0.43400432,44.807204,61.491092)"
       inkscape:export-xdpi="96"
       inkscape:export-ydpi="96"
       inkscape:export-filename="/home/nathan/dev/ggj20/data/textures/cracker.png" />
    <path
       style="fill:#000000;stroke:none;stroke-width:0.26458332px;stroke-linecap:butt;stroke-linejoin:miter;stroke-opacity:1"
       d="m 105.7051,131.56016 c 0.56158,-0.46412 2.52554,1.05252 4.71534,2.87609 2.17793,1.81369 4.03459,3.44415 3.70365,4.07292 -0.33887,0.64386 -2.89132,0.043 -5.3961,-2.0382 -2.49792,-2.07554 -3.57208,-4.45693 -3.02289,-4.91081 z"
       id="path1593"
       inkscape:connector-curvature="0"
       inkscape:path-effect="#path-effect1595"
       inkscape:original-d="m 105.7051,131.56016 c 2.40375,2.90852 5.36159,5.33985 8.41899,6.94901"
       transform="matrix(0.43400432,0,0,0.43400432,44.807204,61.491092)"
       inkscape:export-xdpi="96"
       inkscape:export-ydpi="96"
       inkscape:export-filename="/home/nathan/dev/ggj20/data/textures/cracker.png" />
    <path
       style="fill:#000000;stroke:none;stroke-width:0.26458332px;stroke-linecap:butt;stroke-linejoin:miter;stroke-opacity:1"
       d="m 131.76388,131.6938 c 0.66048,-0.0206 1.51692,1.69324 0.1575,3.66642 -0.009,0.013 -0.0179,0.0259 -0.027,0.0387 -1.11731,1.61486 -2.59639,2.04664 -3.07048,1.64027 -0.62815,-0.5384 0.0746,-1.88516 0.87669,-3.11899 0.006,-0.009 0.0115,-0.0182 0.0172,-0.0273 0.34561,-0.54609 0.77442,-1.12256 1.058,-1.46851 0.30665,-0.3741 0.63247,-0.71955 0.98807,-0.73063 z"
       id="path1597"
       inkscape:connector-curvature="0"
       inkscape:path-effect="#path-effect1599"
       inkscape:original-d="m 131.76388,131.6938 c 0.0706,2.26591 -1.66763,3.86099 -2.93997,5.34539"
       transform="matrix(0.43400432,0,0,0.43400432,44.807204,61.491092)"
       inkscape:export-xdpi="96"
       inkscape:export-ydpi="96"
       inkscape:export-filename="/home/nathan/dev/ggj20/data/textures/cracker.png" />
    <path
       style="fill:#000000;stroke:none;stroke-width:0.26458332px;stroke-linecap:butt;stroke-linejoin:miter;stroke-opacity:1"
       d="m 127.35393,132.22833 c 0.31534,-0.57364 2.77584,-0.16127 5.24955,1.75486 2.52974,1.95952 3.41633,4.37408 2.76853,4.79325 -0.53288,0.3448 -2.31773,-1.1336 -4.37833,-2.69087 -2.16915,-1.63931 -4.0168,-3.17135 -3.63975,-3.85724 z"
       id="path1601"
       inkscape:connector-curvature="0"
       inkscape:path-effect="#path-effect1603"
       inkscape:original-d="m 127.35393,132.22833 c 3.04861,1.67589 6.09498,3.57604 8.01808,6.54811"
       transform="matrix(0.43400432,0,0,0.43400432,44.807204,61.491092)"
       inkscape:export-xdpi="96"
       inkscape:export-ydpi="96"
       inkscape:export-filename="/home/nathan/dev/ggj20/data/textures/cracker.png" />
    <path
       style="fill:#000000;stroke:none;stroke-width:0.26458332px;stroke-linecap:butt;stroke-linejoin:miter;stroke-opacity:1"
       d="m 115.59407,148.66541 c -0.18584,-0.29298 0.14647,-0.97435 1.17917,-1.55847 1.03422,-0.58498 2.61981,-0.94797 4.39878,-0.58837 0,0 0.01,0.002 0.01,0.002 3.33742,0.67556 5.15855,2.59358 4.96929,3.08027 -0.13441,0.34562 -0.83292,0.41628 -1.85187,0.27256 -1.01051,-0.14252 -2.28805,-0.50874 -3.62299,-0.75575 0,0 -0.007,-0.001 -0.007,-0.001 -1.34625,-0.24525 -2.39118,-0.27069 -3.33705,-0.24003 -0.86993,0.0282 -1.54086,0.0997 -1.73789,-0.21088 z"
       id="path1605"
       inkscape:connector-curvature="0"
       inkscape:path-effect="#path-effect1607"
       inkscape:original-d="m 115.59407,148.66541 c 3.48184,-2.20858 7.226,-0.36 10.55715,0.93544"
       transform="matrix(0.43400432,0,0,0.43400432,44.807204,61.491092)"
       inkscape:export-xdpi="96"
       inkscape:export-ydpi="96"
       inkscape:export-filename="/home/nathan/dev/ggj20/data/textures/cracker.png" />
    <path
       style="fill:#000080;fill-opacity:1;stroke:#000000;stroke-width:0.28365162;stroke-miterlimit:4;stroke-dasharray:none;stroke-opacity:1"
       d="m 84.29909,121.1058 c -0.0035,-0.45823 0.128668,-1.49227 0.237149,-1.85523 0.280021,-0.93692 0.625004,-1.31631 1.747854,-1.92223 0.247217,-0.13341 0.449485,-0.23354 0.449485,-0.22251 0,0.011 -0.139672,0.21473 -0.310385,0.45267 -0.442561,0.61684 -1.075979,1.69255 -1.637921,2.78163 -0.372345,0.72163 -0.485159,0.89929 -0.486182,0.76567 z"
       id="path1609"
       inkscape:connector-curvature="0"
       inkscape:export-xdpi="96"
       inkscape:export-ydpi="96"
       inkscape:export-filename="/home/nathan/dev/ggj20/data/textures/cracker.png" />
    <path
       style="fill:#000080;fill-opacity:1;stroke:#000000;stroke-width:0.28365162;stroke-miterlimit:4;stroke-dasharray:none;stroke-opacity:1"
       d="m 108.23062,122.43976 c -0.16375,-1.59731 -0.65214,-2.96623 -1.60827,-4.50782 -0.15912,-0.25656 -0.27462,-0.48115 -0.25667,-0.4991 0.0514,-0.0514 0.8774,0.79158 1.18363,1.20805 0.40345,0.5487 0.613,0.94726 0.82394,1.56715 0.16403,0.48205 0.18707,0.62479 0.18699,1.15875 -8e-5,0.49273 -0.0275,0.69202 -0.14405,1.04397 l -0.14394,0.43499 z"
       id="path1611"
       inkscape:connector-curvature="0"
       inkscape:export-xdpi="96"
       inkscape:export-ydpi="96"
       inkscape:export-filename="/home/nathan/dev/ggj20/data/textures/cracker.png" />
  </g>
</svg>
