<?xml version="1.0" encoding="UTF-8" standalone="no"?>
<!-- Created with Inkscape (http://www.inkscape.org/) -->

<svg
   xmlns:dc="http://purl.org/dc/elements/1.1/"
   xmlns:cc="http://creativecommons.org/ns#"
   xmlns:rdf="http://www.w3.org/1999/02/22-rdf-syntax-ns#"
   xmlns:svg="http://www.w3.org/2000/svg"
   xmlns="http://www.w3.org/2000/svg"
   xmlns:sodipodi="http://sodipodi.sourceforge.net/DTD/sodipodi-0.dtd"
   xmlns:inkscape="http://www.inkscape.org/namespaces/inkscape"
   width="17.226011mm"
   height="28.212618mm"
   viewBox="0 0 17.226011 28.212618"
   version="1.1"
   id="svg850"
   inkscape:version="0.92.4 (unknown)"
   sodipodi:docname="player.svg">
  <defs
     id="defs844">
    <inkscape:path-effect
       effect="skeletal"
       id="path-effect1575"
       is_visible="true"
       pattern="M 0,5 C 0,2.24 2.24,0 5,0 7.76,0 10,2.24 10,5 10,7.76 7.76,10 5,10 2.24,10 0,7.76 0,5 Z"
       copytype="single_stretched"
       prop_scale="0.26458333"
       scale_y_rel="false"
       spacing="0"
       normal_offset="0"
       tang_offset="0"
       prop_units="false"
       vertical_pattern="false"
       fuse_tolerance="0" />
    <inkscape:path-effect
       effect="skeletal"
       id="path-effect1471"
       is_visible="true"
       pattern="M 0,5 C 0,2.24 2.24,0 5,0 7.76,0 10,2.24 10,5 10,7.76 7.76,10 5,10 2.24,10 0,7.76 0,5 Z"
       copytype="single_stretched"
       prop_scale="0.26458333"
       scale_y_rel="false"
       spacing="0"
       normal_offset="0"
       tang_offset="0"
       prop_units="false"
       vertical_pattern="false"
       fuse_tolerance="0" />
    <inkscape:path-effect
       effect="skeletal"
       id="path-effect841"
       is_visible="true"
       pattern="M 0,5 C 0,2.24 2.24,0 5,0 7.76,0 10,2.24 10,5 10,7.76 7.76,10 5,10 2.24,10 0,7.76 0,5 Z"
       copytype="single_stretched"
       prop_scale="0.26458333"
       scale_y_rel="false"
       spacing="0"
       normal_offset="0"
       tang_offset="0"
       prop_units="false"
       vertical_pattern="false"
       fuse_tolerance="0" />
    <inkscape:path-effect
       effect="skeletal"
       id="path-effect845"
       is_visible="true"
       pattern="M 0,5 C 0,2.24 2.24,0 5,0 7.76,0 10,2.24 10,5 10,7.76 7.76,10 5,10 2.24,10 0,7.76 0,5 Z"
       copytype="single_stretched"
       prop_scale="0.26458333"
       scale_y_rel="false"
       spacing="0"
       normal_offset="0"
       tang_offset="0"
       prop_units="false"
       vertical_pattern="false"
       fuse_tolerance="0" />
    <inkscape:path-effect
       effect="skeletal"
       id="path-effect849"
       is_visible="true"
       pattern="M 0,5 C 0,2.24 2.24,0 5,0 7.76,0 10,2.24 10,5 10,7.76 7.76,10 5,10 2.24,10 0,7.76 0,5 Z"
       copytype="single_stretched"
       prop_scale="0.26458333"
       scale_y_rel="false"
       spacing="0"
       normal_offset="0"
       tang_offset="0"
       prop_units="false"
       vertical_pattern="false"
       fuse_tolerance="0" />
    <inkscape:path-effect
       effect="skeletal"
       id="path-effect853"
       is_visible="true"
       pattern="M 0,5 C 0,2.24 2.24,0 5,0 7.76,0 10,2.24 10,5 10,7.76 7.76,10 5,10 2.24,10 0,7.76 0,5 Z"
       copytype="single_stretched"
       prop_scale="0.26458333"
       scale_y_rel="false"
       spacing="0"
       normal_offset="0"
       tang_offset="0"
       prop_units="false"
       vertical_pattern="false"
       fuse_tolerance="0" />
    <inkscape:path-effect
       effect="skeletal"
       id="path-effect861"
       is_visible="true"
       pattern="M 0,5 C 0,2.24 2.24,0 5,0 7.76,0 10,2.24 10,5 10,7.76 7.76,10 5,10 2.24,10 0,7.76 0,5 Z"
       copytype="single_stretched"
       prop_scale="0.26458333"
       scale_y_rel="false"
       spacing="0"
       normal_offset="0"
       tang_offset="0"
       prop_units="false"
       vertical_pattern="false"
       fuse_tolerance="0" />
  </defs>
  <sodipodi:namedview
     id="base"
     pagecolor="#ffffff"
     bordercolor="#666666"
     borderopacity="1.0"
     inkscape:pageopacity="0.0"
     inkscape:pageshadow="2"
     inkscape:zoom="3.959798"
     inkscape:cx="35.288228"
     inkscape:cy="27.658732"
     inkscape:document-units="mm"
     inkscape:current-layer="layer1"
     showgrid="false"
     inkscape:window-width="1875"
     inkscape:window-height="1025"
     inkscape:window-x="45"
     inkscape:window-y="27"
     inkscape:window-maximized="1" />
  <metadata
     id="metadata847">
    <rdf:RDF>
      <cc:Work
         rdf:about="">
        <dc:format>image/svg+xml</dc:format>
        <dc:type
           rdf:resource="http://purl.org/dc/dcmitype/StillImage" />
        <dc:title />
      </cc:Work>
    </rdf:RDF>
  </metadata>
  <g
     inkscape:label="Layer 1"
     inkscape:groupmode="layer"
     id="layer1"
     transform="translate(-102.25456,-92.526444)">
    <path
       style="fill:#4d4d4d;fill-opacity:1;stroke:#000000;stroke-width:0.62848175;stroke-miterlimit:4;stroke-dasharray:none;stroke-opacity:1"
       d="m 102.70768,104.82062 16.33852,-0.0918 -5.1402,15.696 h -5.32379 z"
       id="rect1449"
       inkscape:connector-curvature="0"
       sodipodi:nodetypes="ccccc"
       inkscape:export-filename="/home/nathan/dev/ggj20/data/textures/player.png"
       inkscape:export-xdpi="96"
       inkscape:export-ydpi="96" />
    <g
       id="g1563"
       transform="matrix(0.48568916,0,0,0.48568916,65.693577,47.908616)"
       inkscape:export-filename="/home/nathan/dev/ggj20/data/textures/player.png"
       inkscape:export-xdpi="96"
       inkscape:export-ydpi="96">
      <path
         style="fill:#f25022;fill-opacity:1;stroke:#000000;stroke-width:0.62245739;stroke-miterlimit:4;stroke-dasharray:none;stroke-opacity:1"
         d="m 82.0158,121.47226 h 10.8769 v 10.68791 H 82.0158 Z"
         id="rect1524"
         inkscape:connector-curvature="0" />
      <path
         style="fill:#7fba00;fill-opacity:1;stroke:#000000;stroke-width:0.62245739;stroke-miterlimit:4;stroke-dasharray:none;stroke-opacity:1"
         d="m 92.8927,121.47226 h 10.8769 v 10.68791 H 92.8927 Z"
         id="rect1524-5"
         inkscape:connector-curvature="0" />
      <path
         style="fill:#00a4ef;fill-opacity:1;stroke:#000000;stroke-width:0.62245739;stroke-miterlimit:4;stroke-dasharray:none;stroke-opacity:1"
         d="m 82.0158,132.16017 h 10.8769 v 10.68791 l -7.083806,-0.099 -0.627543,-1.64916 -3.165551,-7.19667 z"
         id="rect1524-3"
         inkscape:connector-curvature="0"
         sodipodi:nodetypes="ccccccc" />
      <path
         style="fill:#ffb900;fill-opacity:1;stroke:#000000;stroke-width:0.62245739;stroke-miterlimit:4;stroke-dasharray:none;stroke-opacity:1"
         d="m 92.8927,132.16017 h 10.8769 l 0.33073,3.39675 -1.37486,4.64511 -1.12923,2.78779 -8.70354,-0.14174 z"
         id="rect1524-5-5"
         inkscape:connector-curvature="0"
         sodipodi:nodetypes="ccccccc" />
    </g>
    <path
       style="fill:#f4e3d7;fill-opacity:1;stroke:#000000;stroke-width:0.62848175;stroke-miterlimit:4;stroke-dasharray:none;stroke-opacity:1"
       d="m 116.93505,100.23114 c 0,4.2076 -2.68216,8.53642 -6.10401,8.53642 -3.42184,0 -6.28757,-4.32882 -6.28757,-8.53642 0,-4.207591 2.77394,-6.425259 6.19578,-6.425261 3.42184,-10e-7 6.1958,2.217667 6.1958,6.425261 z"
       id="path1446"
       inkscape:connector-curvature="0"
       sodipodi:nodetypes="sssss"
       inkscape:export-filename="/home/nathan/dev/ggj20/data/textures/player.png"
       inkscape:export-xdpi="96"
       inkscape:export-ydpi="96" />
    <ellipse
       style="fill:#f4e3d7;fill-opacity:1;stroke:#000000;stroke-width:0.62848175;stroke-miterlimit:4;stroke-dasharray:none;stroke-opacity:1"
       id="path1452"
       cx="108.21505"
       cy="100.50651"
       rx="2.2947366"
       ry="2.0193684"
       inkscape:export-filename="/home/nathan/dev/ggj20/data/textures/player.png"
       inkscape:export-xdpi="96"
       inkscape:export-ydpi="96" />
    <ellipse
       style="fill:#f4e3d7;fill-opacity:1;stroke:#000000;stroke-width:0.62848175;stroke-miterlimit:4;stroke-dasharray:none;stroke-opacity:1"
       id="path1452-3"
       cx="-113.41263"
       cy="100.60977"
       rx="2.2947366"
       ry="2.0193684"
       transform="scale(-1,1)"
       inkscape:export-filename="/home/nathan/dev/ggj20/data/textures/player.png"
       inkscape:export-xdpi="96"
       inkscape:export-ydpi="96" />
    <path
       style="fill:#000000;stroke:none;stroke-width:0.26458332px;stroke-linecap:butt;stroke-linejoin:miter;stroke-opacity:1"
       d="m 119.4641,108.83873 c 0.29343,-0.6687 0.22809,-1.26598 0.22776,-1.30787 -0.003,-0.4005 0.39446,0.9534 0.43371,1.30787 0.077,0.69542 0.10348,1.40666 -0.24071,1.39263 -0.57914,-0.0236 -0.7019,-0.75193 -0.42076,-1.39263 z"
       id="path1469"
       inkscape:connector-curvature="0"
       inkscape:path-effect="#path-effect1471"
       inkscape:original-d="m 119.4641,108.83873 c 0.24815,0.10889 0.59825,0.007 0.66146,0"
       transform="matrix(0.48568916,0,0,0.48568916,52.59063,47.587353)"
       inkscape:export-filename="/home/nathan/dev/ggj20/data/textures/player.png"
       inkscape:export-xdpi="96"
       inkscape:export-ydpi="96" />
    <path
       style="fill:#f4e3d7;fill-opacity:1;stroke:#000000;stroke-width:0.6517036;stroke-miterlimit:4;stroke-dasharray:none;stroke-opacity:1"
       d="m 104.61153,99.913599 1.17189,0.348241 v 0 z"
       id="rect1489"
       inkscape:connector-curvature="0"
       sodipodi:nodetypes="ccccc"
       inkscape:export-filename="/home/nathan/dev/ggj20/data/textures/player.png"
       inkscape:export-xdpi="96"
       inkscape:export-ydpi="96" />
    <path
       style="fill:#f4e3d7;fill-opacity:1;stroke:#000000;stroke-width:0.6517036;stroke-miterlimit:4;stroke-dasharray:none;stroke-opacity:1"
       d="m 116.93505,100.23114 -1.17189,0.34824 v 0 z"
       id="rect1489-6"
       inkscape:connector-curvature="0"
       sodipodi:nodetypes="ccccc"
       inkscape:export-filename="/home/nathan/dev/ggj20/data/textures/player.png"
       inkscape:export-xdpi="96"
       inkscape:export-ydpi="96" />
    <ellipse
       style="fill:#000000;fill-opacity:1;stroke:#000000;stroke-width:0.62848175;stroke-miterlimit:4;stroke-dasharray:none;stroke-opacity:1"
       id="path1507"
       cx="108.21505"
       cy="100.56962"
       rx="0.4245263"
       ry="0.38436842"
       inkscape:export-filename="/home/nathan/dev/ggj20/data/textures/player.png"
       inkscape:export-xdpi="96"
       inkscape:export-ydpi="96" />
    <ellipse
       style="fill:#000000;fill-opacity:1;stroke:#000000;stroke-width:0.62848175;stroke-miterlimit:4;stroke-dasharray:none;stroke-opacity:1"
       id="path1507-7"
       cx="113.44704"
       cy="100.55241"
       rx="0.4245263"
       ry="0.38436842"
       inkscape:export-filename="/home/nathan/dev/ggj20/data/textures/player.png"
       inkscape:export-xdpi="96"
       inkscape:export-ydpi="96" />
    <g
       id="g850"
       transform="matrix(0.48568916,0,0,0.48568916,67.77839,43.303626)"
       style="stroke:#666666;stroke-opacity:1"
       inkscape:export-filename="/home/nathan/dev/ggj20/data/textures/player.png"
       inkscape:export-xdpi="96"
       inkscape:export-ydpi="96">
      <g
         id="g845"
         style="stroke:#666666;stroke-opacity:1">
        <path
           style="fill:#666666;stroke:#666666;stroke-width:0.26458332px;stroke-linecap:butt;stroke-linejoin:miter;stroke-opacity:1"
           d="m 105.88885,90.718036 c 0.23333,0.107585 -0.13248,1.047367 -0.51841,2.741793 0,0 0,10e-7 0,10e-7 -0.0843,0.407609 -0.21429,0.874646 -0.14473,1.174357 0.0351,0.05711 0.0168,0.04503 -0.0259,-0.07691 -0.10422,-0.111657 -0.18557,-0.174852 -0.27525,-0.180042 -0.0201,0.03132 0.0762,-0.103504 0.35779,-0.226366 0,0 0,0 0,0 0.77083,-0.48576 1.32918,-1.026355 2.27192,-1.793631 0.7325,-0.60948 1.65295,-1.383517 2.7486,-1.98188 0.40789,-0.169024 0.68229,-0.218098 0.78709,-0.203735 0,0 0,0 0,0 0.29657,-0.03459 0.57461,-0.04944 0.83591,-0.05894 0.78749,-0.03056 1.55476,-0.02488 2.35565,-0.01542 2.15737,0.02467 4.19225,0.09277 6.34962,0.117445 1.86984,0.01692 3.85802,0.05977 5.70243,-0.180284 0.29814,-0.05195 0.56313,-0.08447 0.78024,-0.124522 0.20825,-0.03842 0.37062,-0.08355 0.47692,-0.159233 0.0197,-0.06731 -0.0246,0.03176 -0.20583,0.272159 0,0 0,6e-6 0,6e-6 -0.0911,0.373527 -0.10866,0.587941 -0.009,0.700959 -0.76333,-1.634105 -2.43194,-2.814635 -4.11324,-3.560249 -2.1334,-0.920315 -4.45686,-1.202492 -6.52681,-1.189389 -2.60983,0.03377 -4.73294,0.512778 -6.46313,1.265589 -3.17039,1.419612 -4.09473,3.574645 -4.38378,3.478294 -0.0605,-0.02018 -0.26233,-2.706174 3.64885,-4.920104 1.83595,-1.064193 4.22203,-1.848846 7.10662,-2.04135 2.30448,-0.16744 4.96564,0.04617 7.57564,1.064009 2.13115,0.812074 4.27636,2.347973 5.51751,4.722374 0.23537,0.384657 0.26827,0.929443 0.0501,1.580359 0,0 0,1e-5 0,1e-5 -0.32271,0.549347 -0.66149,0.861014 -0.94246,0.955506 -0.40393,0.19924 -0.79316,0.33158 -1.15617,0.420078 -0.37816,0.09219 -0.72507,0.136124 -1.02595,0.159411 -2.12105,0.257838 -4.2203,0.193151 -6.08997,0.125516 -2.16593,-0.07354 -4.48815,-0.228116 -6.37495,-0.341296 -0.80208,-0.04762 -1.52358,-0.09313 -2.24882,-0.107853 -0.24496,-0.0042 -0.46164,-0.008 -0.6581,0.0032 0,0 0,10e-7 0,10e-7 -0.17882,0.04122 -0.18368,0.003 -0.0276,-0.04109 -0.86218,0.381203 -1.76433,1.035529 -2.56956,1.579765 -0.93182,0.639678 -1.68444,1.196338 -2.65393,1.662695 0,0 0,0 0,0 -0.24077,0.162869 -0.67336,0.319134 -1.24473,0.302083 -0.27028,-0.02112 -0.52579,-0.166592 -0.73659,-0.418783 -0.18409,-0.309217 -0.23737,-0.559542 -0.21309,-0.728307 0.0283,-0.692782 0.27035,-1.234857 0.4461,-1.598461 0,0 0,-1e-6 0,-1e-6 0.75042,-1.682235 1.45997,-2.440998 1.59706,-2.377788 z"
           id="path1573"
           inkscape:connector-curvature="0"
           inkscape:path-effect="#path-effect1575"
           inkscape:original-d="m 105.88885,90.718036 c -3.96386,8.596881 1.72538,2.202555 4.89437,0.618061 1.17309,-0.586544 19.08608,1.422604 17.77342,-1.202714 -3.81784,-7.635687 -20.2705,-6.607225 -22.66779,0.584653 z"
           sodipodi:nodetypes="cssc"
           transform="translate(-28.998744,17.773423)" />
      </g>
      <path
         transform="matrix(0.26458333,0,0,0.26458333,102.25456,91.790132)"
         inkscape:connector-curvature="0"
         id="path842"
         d="m -98.276253,75.847997 c 0.03545,-0.158285 0.26736,-1.196929 0.515357,-2.308097 0.247997,-1.111168 0.824028,-3.469243 1.280069,-5.240166 0.619262,-2.404754 0.833266,-3.454561 0.845366,-4.146976 0.01608,-0.919933 0.02061,-0.93167 0.585781,-1.515229 0.313269,-0.323463 1.144946,-1.269967 1.848171,-2.103343 5.438822,-6.445418 12.281607,-10.645042 21.270647,-13.054438 8.961725,-2.402074 19.735036,-2.869411 29.359441,-1.273587 9.554129,1.584171 17.587108,5.253454 23.193318,10.59418 0.956392,0.911102 2.952691,3.251203 2.852831,3.344143 -0.08343,0.07765 -3.875526,0.566961 -5.415986,0.698848 -0.798651,0.06838 -3.374506,0.194276 -5.724122,0.279777 -4.248308,0.154593 -15.168526,0.05062 -28.999871,-0.276109 -6.555491,-0.154858 -15.256238,-0.149762 -17.848084,0.01046 -3.310781,0.204657 -4.343114,0.556363 -7.279461,2.480043 -2.689683,1.762085 -3.940851,2.730157 -9.596449,7.4251 -3.868504,3.211404 -5.299489,4.334904 -6.411486,5.03381 l -0.539975,0.339382 z"
         style="fill:#666666;fill-opacity:1;stroke:#666666;stroke-width:0.61754519;stroke-miterlimit:4;stroke-dasharray:none;stroke-opacity:1" />
    </g>
  </g>
</svg>
